<svg width="123" height="33" viewBox="0 0 123 33" fill="none" xmlns="http://www.w3.org/2000/svg">
<g filter="url(#filter0_i_1382_2)">
<path fill-rule="evenodd" clip-rule="evenodd" d="M24.7709 0.974184C23.9597 1.15411 23.344 1.72098 23.065 2.54472C23.0003 2.73631 22.9972 3.11074 22.9797 12.6448L22.9615 22.546L22.0027 21.1481C21.4753 20.3791 20.7264 19.2889 20.3383 18.7255C19.9502 18.1621 18.3057 15.7681 16.6837 13.4055C13.2285 8.37277 13.3772 8.55544 12.5224 8.28983L12.2511 8.20552H7.09493C1.36825 8.20552 1.76388 8.18941 1.2402 8.44457C-0.410079 9.2486 -0.414365 11.6772 1.23316 12.488C1.76714 12.7509 1.59144 12.7421 6.42552 12.7455L10.7314 12.7485L13.8251 17.2545C16.7775 21.5548 17.2416 22.2302 18.357 23.8497C18.6242 24.2377 19.8825 26.0689 21.1534 27.9191C22.9051 30.4695 23.5199 31.3376 23.6956 31.5089C24.7773 32.564 26.6264 32.2173 27.2867 30.8356C27.5172 30.3529 27.5015 31.1608 27.5032 19.7442L27.5047 9.32692L27.6213 9.45475C27.6854 9.52502 28.5449 10.5261 29.5313 11.6792C30.5177 12.8325 32.5442 15.2002 34.0345 16.9409C35.5248 18.6818 37.2668 20.7164 37.9056 21.4623C38.5441 22.2084 40.3348 24.3001 41.8846 26.1103C46.5996 31.618 46.5191 31.5258 46.7425 31.6894C48.0261 32.6303 49.887 31.9622 50.2791 30.4198C50.3256 30.2366 50.3334 29.4542 50.3365 24.7138C50.3384 21.692 50.3511 19.2206 50.3646 19.2215C50.378 19.2226 52.3185 21.9286 54.6769 25.235C59.3238 31.7505 59.2228 31.6181 59.7476 31.8767C60.2752 32.1366 60.2011 32.1317 63.5167 32.1324C66.8088 32.1331 66.7431 32.1373 67.2689 31.8896C68.9317 31.1062 68.8973 28.5341 67.2147 27.8101C66.7787 27.6226 66.9077 27.6315 64.3403 27.6118L61.9362 27.5936L55.9031 19.1474C52.4208 14.2726 49.7859 10.6173 49.6714 10.5025C48.6129 9.44036 46.7813 9.71575 46.0884 11.0413C45.8067 11.5801 45.8322 10.9663 45.8119 17.6906L45.7937 23.7032L44.362 22.0312C43.5747 21.1115 41.8155 19.0571 40.4531 17.4654C39.0904 15.8738 37.2511 13.7253 36.3653 12.6908C35.4797 11.6563 34.1699 10.1262 33.4549 9.29059C26.2614 0.885932 26.7052 1.387 26.2543 1.16063C25.8231 0.944025 25.238 0.87051 24.7709 0.974184Z" fill="url(#paint0_linear_1382_2)"/>
<path d="M75.884 12.1726C75.6738 12.1726 75.4793 12.1253 75.3006 12.0307C75.1324 11.9361 75.0483 11.7995 75.0483 11.6209V1.48558C75.0483 1.17033 75.1324 0.95491 75.3006 0.839318C75.4793 0.713218 75.6738 0.650168 75.884 0.650168C76.0837 0.650168 76.2572 0.681693 76.4044 0.744743C76.5515 0.797284 76.6882 0.89186 76.8143 1.02847C76.9405 1.16508 77.0719 1.35423 77.2085 1.59592L79.416 5.77299L81.6551 1.59592C81.7917 1.35423 81.9179 1.16508 82.0335 1.02847C82.1597 0.89186 82.2963 0.797284 82.4435 0.744743C82.5907 0.681693 82.7641 0.650168 82.9638 0.650168C83.1846 0.650168 83.3791 0.713218 83.5472 0.839318C83.7154 0.95491 83.7995 1.17033 83.7995 1.48558V11.6209C83.7995 11.7995 83.7102 11.9361 83.5315 12.0307C83.3633 12.1253 83.1741 12.1726 82.9638 12.1726C82.7536 12.1726 82.5591 12.1253 82.3804 12.0307C82.2122 11.9361 82.1281 11.7995 82.1281 11.6209V4.05488L80.0152 7.96399C79.9311 8.1006 79.8365 8.20043 79.7314 8.26348C79.6263 8.31602 79.5159 8.34229 79.4003 8.34229C79.3057 8.34229 79.2058 8.31602 79.1007 8.26348C78.9956 8.21093 78.9062 8.1111 78.8326 7.96399L76.7197 3.9603V11.6209C76.7197 11.7995 76.6304 11.9361 76.4517 12.0307C76.2835 12.1253 76.0943 12.1726 75.884 12.1726Z" fill="#009C9E"/>
<path d="M88.6177 12.2987C88.0501 12.2987 87.5192 12.1516 87.0252 11.8573C86.5311 11.5631 86.1317 11.1795 85.8268 10.7067C85.5325 10.2233 85.3853 9.70838 85.3853 9.16194V7.71179C85.3853 7.15484 85.5272 6.63993 85.811 6.16706C86.1054 5.69418 86.4996 5.31588 86.9936 5.03215C87.4982 4.74843 88.0448 4.60657 88.6335 4.60657C89.2222 4.60657 89.7635 4.74843 90.2576 5.03215C90.7517 5.30537 91.1459 5.67842 91.4402 6.1513C91.7451 6.61366 91.8975 7.13383 91.8975 7.71179V9.16194C91.8975 9.69787 91.7451 10.2075 91.4402 10.6909C91.1459 11.1743 90.7464 11.5631 90.2418 11.8573C89.7478 12.1516 89.2064 12.2987 88.6177 12.2987ZM88.6335 10.8328C88.9278 10.8328 89.1959 10.754 89.4377 10.5963C89.6795 10.4387 89.8739 10.2338 90.0211 9.98159C90.1683 9.71888 90.2418 9.44567 90.2418 9.16194V7.71179C90.2418 7.43857 90.1683 7.17586 90.0211 6.92366C89.8739 6.67146 89.6795 6.46655 89.4377 6.30892C89.1959 6.1513 88.9278 6.07248 88.6335 6.07248C88.3287 6.07248 88.0554 6.1513 87.8136 6.30892C87.5823 6.46655 87.3931 6.67146 87.2459 6.92366C87.1093 7.17586 87.0409 7.43857 87.0409 7.71179V9.16194C87.0409 9.44567 87.1093 9.71888 87.2459 9.98159C87.3931 10.2338 87.5876 10.4387 87.8293 10.5963C88.0711 10.754 88.3392 10.8328 88.6335 10.8328Z" fill="#009C9E"/>
<path d="M97.0903 12.2987C96.5962 12.2987 96.1495 12.1778 95.75 11.9361C95.3611 11.6839 95.0825 11.395 94.9143 11.0692V11.6209C94.9143 11.7575 94.8407 11.8836 94.6936 11.9992C94.5464 12.1148 94.3677 12.1726 94.1575 12.1726C93.9262 12.1726 93.7317 12.1148 93.5741 11.9992C93.4269 11.8836 93.3533 11.7575 93.3533 11.6209V0.79203C93.3533 0.634404 93.4269 0.508304 93.5741 0.413729C93.7317 0.308645 93.9262 0.256104 94.1575 0.256104C94.3992 0.256104 94.599 0.308645 94.7566 0.413729C94.9248 0.508304 95.0089 0.634404 95.0089 0.79203V5.80452C95.1771 5.49978 95.4347 5.22656 95.7816 4.98487C96.1285 4.73267 96.5489 4.60657 97.043 4.60657C97.5581 4.60657 98.0259 4.74843 98.4463 5.03215C98.8773 5.30537 99.219 5.67842 99.4713 6.1513C99.7341 6.61366 99.8655 7.13383 99.8655 7.71179V9.16194C99.8655 9.70838 99.7341 10.2233 99.4713 10.7067C99.219 11.1795 98.8826 11.5631 98.4621 11.8573C98.0416 12.1516 97.5844 12.2987 97.0903 12.2987ZM96.6173 10.8328C96.9011 10.8328 97.1639 10.754 97.4057 10.5963C97.6474 10.4387 97.8419 10.2285 97.9891 9.96583C98.1362 9.70312 98.2098 9.43516 98.2098 9.16194V7.71179C98.2098 7.43857 98.1362 7.17586 97.9891 6.92366C97.8419 6.67146 97.6474 6.46655 97.4057 6.30892C97.1639 6.1513 96.8958 6.07248 96.6015 6.07248C96.3387 6.07248 96.0864 6.14079 95.8446 6.2774C95.6029 6.4035 95.4031 6.58739 95.2455 6.82908C95.0878 7.07078 95.0089 7.36501 95.0089 7.71179V9.52448C95.0089 9.65058 95.0773 9.81871 95.2139 10.0289C95.3611 10.2285 95.5556 10.4124 95.7973 10.5806C96.0391 10.7487 96.3124 10.8328 96.6173 10.8328Z" fill="#009C9E"/>
<path d="M102.134 2.8254C101.871 2.8254 101.645 2.73608 101.456 2.55744C101.267 2.37879 101.172 2.17913 101.172 1.95846C101.172 1.71677 101.267 1.51185 101.456 1.34372C101.645 1.17559 101.871 1.09152 102.134 1.09152C102.397 1.09152 102.617 1.17559 102.796 1.34372C102.985 1.51185 103.08 1.71677 103.08 1.95846C103.08 2.17913 102.985 2.37879 102.796 2.55744C102.617 2.73608 102.397 2.8254 102.134 2.8254ZM102.134 12.1726C101.892 12.1726 101.692 12.1148 101.535 11.9992C101.387 11.8836 101.314 11.7575 101.314 11.6209V5.23707C101.314 5.07944 101.387 4.95334 101.535 4.85877C101.692 4.75368 101.892 4.70114 102.134 4.70114C102.365 4.70114 102.56 4.75368 102.717 4.85877C102.885 4.95334 102.97 5.07944 102.97 5.23707V11.6209C102.97 11.7575 102.885 11.8836 102.717 11.9992C102.56 12.1148 102.365 12.1726 102.134 12.1726Z" fill="#009C9E"/>
<path d="M105.648 12.1726C105.406 12.1726 105.206 12.1148 105.049 11.9992C104.902 11.8836 104.828 11.7575 104.828 11.6209V0.79203C104.828 0.634404 104.902 0.508304 105.049 0.413729C105.206 0.308645 105.406 0.256104 105.648 0.256104C105.879 0.256104 106.074 0.308645 106.231 0.413729C106.4 0.508304 106.484 0.634404 106.484 0.79203V11.6209C106.484 11.7575 106.4 11.8836 106.231 11.9992C106.074 12.1148 105.879 12.1726 105.648 12.1726Z" fill="#009C9E"/>
<path d="M109.171 2.8254C108.908 2.8254 108.682 2.73608 108.493 2.55744C108.304 2.37879 108.209 2.17913 108.209 1.95846C108.209 1.71677 108.304 1.51185 108.493 1.34372C108.682 1.17559 108.908 1.09152 109.171 1.09152C109.434 1.09152 109.654 1.17559 109.833 1.34372C110.022 1.51185 110.117 1.71677 110.117 1.95846C110.117 2.17913 110.022 2.37879 109.833 2.55744C109.654 2.73608 109.434 2.8254 109.171 2.8254ZM109.171 12.1726C108.929 12.1726 108.729 12.1148 108.572 11.9992C108.425 11.8836 108.351 11.7575 108.351 11.6209V5.23707C108.351 5.07944 108.425 4.95334 108.572 4.85877C108.729 4.75368 108.929 4.70114 109.171 4.70114C109.402 4.70114 109.597 4.75368 109.754 4.85877C109.923 4.95334 110.007 5.07944 110.007 5.23707V11.6209C110.007 11.7575 109.923 11.8836 109.754 11.9992C109.597 12.1148 109.402 12.1726 109.171 12.1726Z" fill="#009C9E"/>
<path d="M114.451 12.1726C113.558 12.1726 112.874 11.9782 112.401 11.5894C111.928 11.1901 111.692 10.5648 111.692 9.71363V1.8166C111.692 1.65897 111.776 1.53287 111.944 1.43829C112.123 1.33321 112.312 1.28067 112.512 1.28067C112.711 1.28067 112.901 1.33321 113.079 1.43829C113.258 1.53287 113.347 1.65897 113.347 1.8166V4.70114H115.271C115.418 4.70114 115.529 4.76419 115.602 4.89029C115.686 5.01639 115.728 5.15825 115.728 5.31588C115.728 5.47351 115.686 5.61537 115.602 5.74147C115.529 5.86757 115.418 5.93062 115.271 5.93062H113.347V9.71363C113.347 10.0919 113.426 10.3599 113.584 10.5175C113.752 10.6751 114.041 10.754 114.451 10.754H114.987C115.229 10.754 115.408 10.8275 115.523 10.9746C115.649 11.1112 115.713 11.2741 115.713 11.4633C115.713 11.6419 115.649 11.8048 115.523 11.9519C115.408 12.099 115.229 12.1726 114.987 12.1726H114.451Z" fill="#009C9E"/>
<path d="M116.898 15.7192C116.688 15.7192 116.509 15.6719 116.362 15.5773C116.215 15.4932 116.141 15.3041 116.141 15.0098C116.141 14.8207 116.172 14.6526 116.236 14.5054C116.299 14.3688 116.414 14.3005 116.582 14.3005C116.782 14.3005 116.998 14.248 117.229 14.1429C117.471 14.0483 117.702 13.8907 117.923 13.67C118.154 13.4599 118.348 13.1919 118.506 12.8661C118.674 12.5404 118.79 12.1568 118.853 11.7155L116.188 5.59961C116.146 5.52605 116.125 5.45249 116.125 5.37893C116.125 5.24232 116.183 5.11622 116.299 5.00063C116.425 4.87453 116.572 4.7747 116.74 4.70114C116.908 4.62758 117.066 4.5908 117.213 4.5908C117.318 4.5908 117.418 4.61707 117.513 4.66962C117.618 4.71165 117.686 4.78521 117.718 4.89029L119.705 10.0131L121.423 4.89029C121.455 4.78521 121.518 4.71165 121.612 4.66962C121.707 4.61707 121.802 4.5908 121.896 4.5908C122.022 4.5908 122.17 4.62758 122.338 4.70114C122.516 4.7747 122.669 4.87453 122.795 5.00063C122.932 5.11622 123 5.25283 123 5.41046C123 5.49452 122.984 5.55757 122.953 5.59961L120.588 11.7628C120.419 12.2146 120.246 12.6717 120.067 13.1341C119.888 13.607 119.668 14.0378 119.405 14.4266C119.153 14.8154 118.821 15.1254 118.412 15.3566C118.012 15.5983 117.507 15.7192 116.898 15.7192Z" fill="#009C9E"/>
<path d="M75.884 32.13C75.6738 32.13 75.4793 32.0827 75.3006 31.9881C75.1324 31.8936 75.0483 31.757 75.0483 31.5783V21.1435C75.0483 20.9964 75.1061 20.8703 75.2218 20.7652C75.3479 20.6601 75.5056 20.6076 75.6948 20.6076H78.7696C79.4108 20.6076 79.9942 20.7232 80.5198 20.9544C81.0454 21.175 81.4606 21.5428 81.7655 22.0577C82.0703 22.5621 82.2227 23.2347 82.2227 24.0753V24.2014C82.2227 25.0421 82.0651 25.7199 81.7497 26.2348C81.4449 26.7497 81.0191 27.1228 80.4725 27.354C79.9364 27.5746 79.3372 27.685 78.6749 27.685H76.7197V31.5783C76.7197 31.757 76.6304 31.8936 76.4517 31.9881C76.2835 32.0827 76.0943 32.13 75.884 32.13ZM76.7197 26.3609H78.6749C79.2636 26.3609 79.7209 26.1928 80.0468 25.8565C80.3831 25.5202 80.5513 25.0053 80.5513 24.3118V24.1226C80.5513 23.4291 80.3831 22.9194 80.0468 22.5937C79.7209 22.2574 79.2636 22.0893 78.6749 22.0893H76.7197V26.3609Z" fill="#009C9E"/>
<path d="M86.5753 32.2561C85.9866 32.2561 85.44 32.1142 84.9354 31.8305C84.4414 31.5363 84.0472 31.1527 83.7528 30.6798C83.4585 30.1965 83.3113 29.6868 83.3113 29.1509V25.2102C83.3113 25.0736 83.3902 24.9475 83.5479 24.8319C83.716 24.7164 83.9158 24.6586 84.147 24.6586C84.3678 24.6586 84.557 24.7164 84.7147 24.8319C84.8829 24.9475 84.967 25.0736 84.967 25.2102V29.1509C84.967 29.4241 85.0353 29.6868 85.172 29.939C85.3191 30.1912 85.5136 30.3961 85.7554 30.5537C86.0077 30.7114 86.281 30.7902 86.5753 30.7902C86.8696 30.7902 87.1377 30.7114 87.3795 30.5537C87.6212 30.3961 87.8105 30.1912 87.9471 29.939C88.0943 29.6868 88.1679 29.4241 88.1679 29.1509V25.1945C88.1679 25.0474 88.252 24.9213 88.4201 24.8162C88.5989 24.7111 88.7933 24.6586 89.0036 24.6586C89.2453 24.6586 89.4398 24.7111 89.587 24.8162C89.7447 24.9213 89.8235 25.0474 89.8235 25.1945V29.1509C89.8235 29.7078 89.6763 30.2227 89.382 30.6956C89.0877 31.1685 88.6935 31.5468 88.1994 31.8305C87.7053 32.1142 87.164 32.2561 86.5753 32.2561Z" fill="#009C9E"/>
<path d="M92.4362 32.13C92.1944 32.13 91.9947 32.0722 91.837 31.9566C91.6898 31.841 91.6162 31.7149 91.6162 31.5783V20.7494C91.6162 20.5918 91.6898 20.4657 91.837 20.3711C91.9947 20.2661 92.1944 20.2135 92.4362 20.2135C92.6674 20.2135 92.8619 20.2661 93.0196 20.3711C93.1878 20.4657 93.2719 20.5918 93.2719 20.7494V31.5783C93.2719 31.7149 93.1878 31.841 93.0196 31.9566C92.8619 32.0722 92.6674 32.13 92.4362 32.13Z" fill="#009C9E"/>
<path d="M97.4255 32.2561C96.9104 32.2561 96.4479 32.1931 96.0379 32.067C95.628 31.9409 95.3021 31.7832 95.0603 31.5941C94.829 31.3944 94.7134 31.1948 94.7134 30.9951C94.7134 30.9005 94.7344 30.7954 94.7765 30.6798C94.829 30.5643 94.8974 30.4644 94.9815 30.3804C95.0761 30.2963 95.1759 30.2543 95.2811 30.2543C95.4177 30.2543 95.5596 30.3173 95.7068 30.4434C95.8645 30.559 96.0695 30.6798 96.3217 30.8059C96.574 30.9215 96.9262 30.9793 97.3782 30.9793C97.9038 30.9793 98.2559 30.89 98.4346 30.7114C98.6239 30.5327 98.7185 30.3383 98.7185 30.1282C98.7185 29.8549 98.6239 29.6448 98.4346 29.4977C98.2559 29.34 98.0194 29.2139 97.7251 29.1194C97.4413 29.0248 97.1364 28.9355 96.8105 28.8514C96.4847 28.7568 96.1746 28.636 95.8802 28.4889C95.5964 28.3417 95.3599 28.1368 95.1707 27.8741C94.992 27.6114 94.9026 27.2646 94.9026 26.8338C94.9026 26.4765 94.992 26.1245 95.1707 25.7777C95.3494 25.4204 95.6332 25.1314 96.0221 24.9108C96.4216 24.6796 96.9525 24.564 97.6147 24.564C98.0142 24.564 98.3926 24.606 98.75 24.6901C99.1074 24.7741 99.4017 24.8897 99.633 25.0369C99.8643 25.1735 99.9799 25.3258 99.9799 25.494C99.9799 25.5675 99.9536 25.6726 99.9011 25.8092C99.8485 25.9353 99.7749 26.0509 99.6803 26.156C99.5962 26.2506 99.4858 26.2979 99.3492 26.2979C99.2441 26.2979 99.1127 26.2611 98.955 26.1875C98.7973 26.1035 98.6133 26.0246 98.4031 25.9511C98.1929 25.8775 97.9353 25.8407 97.6305 25.8407C97.3256 25.8407 97.0786 25.8933 96.8894 25.9984C96.7107 26.0929 96.5793 26.2085 96.4952 26.3451C96.4111 26.4818 96.369 26.6184 96.369 26.755C96.369 26.9862 96.4584 27.1648 96.6371 27.2909C96.8158 27.417 97.0523 27.5221 97.3467 27.6062C97.641 27.6902 97.9511 27.7795 98.277 27.8741C98.6028 27.9582 98.9077 28.0843 99.1915 28.2524C99.4858 28.4206 99.7224 28.6465 99.9011 28.9302C100.09 29.2139 100.185 29.5922 100.185 30.0651C100.185 30.7271 99.9431 31.2578 99.4596 31.6571C98.9865 32.0564 98.3085 32.2561 97.4255 32.2561Z" fill="#009C9E"/>
<path d="M104.919 32.2561C104.204 32.2561 103.574 32.1247 103.027 31.862C102.48 31.5993 102.049 31.2368 101.734 30.7744C101.419 30.3015 101.261 29.7499 101.261 29.1194V27.6219C101.261 27.065 101.408 26.5553 101.703 26.0929C102.007 25.6306 102.407 25.2628 102.901 24.9896C103.395 24.7058 103.942 24.564 104.541 24.564C105.108 24.564 105.629 24.6901 106.102 24.9423C106.575 25.184 106.953 25.5255 107.237 25.9668C107.531 26.4082 107.679 26.9126 107.679 27.4801C107.679 27.9214 107.61 28.2367 107.474 28.4258C107.337 28.615 107.158 28.7305 106.938 28.7726C106.717 28.8146 106.485 28.8356 106.244 28.8356H102.917V29.1982C102.917 29.7236 103.106 30.1439 103.484 30.4592C103.873 30.7639 104.367 30.9163 104.967 30.9163C105.334 30.9163 105.634 30.8637 105.865 30.7587C106.097 30.6536 106.291 30.5537 106.449 30.4592C106.606 30.3646 106.754 30.3173 106.89 30.3173C107.027 30.3173 107.142 30.3593 107.237 30.4434C107.332 30.5275 107.405 30.6273 107.458 30.7429C107.51 30.8585 107.537 30.9636 107.537 31.0582C107.537 31.2158 107.426 31.3892 107.206 31.5783C106.995 31.7675 106.696 31.9303 106.307 32.067C105.918 32.1931 105.455 32.2561 104.919 32.2561ZM102.917 27.8111H105.534C105.765 27.8111 105.918 27.7795 105.991 27.7165C106.076 27.6534 106.118 27.5273 106.118 27.3382C106.118 27.065 106.049 26.8128 105.913 26.5816C105.776 26.3399 105.587 26.156 105.345 26.0299C105.103 25.8933 104.83 25.825 104.525 25.825C104.231 25.825 103.963 25.888 103.721 26.0141C103.479 26.1402 103.285 26.3136 103.137 26.5343C102.99 26.755 102.917 27.0124 102.917 27.3067V27.8111Z" fill="#009C9E"/>
</g>
<defs>
<filter id="filter0_i_1382_2" x="0" y="0.256104" width="123" height="36" filterUnits="userSpaceOnUse" color-interpolation-filters="sRGB">
<feFlood flood-opacity="0" result="BackgroundImageFix"/>
<feBlend mode="normal" in="SourceGraphic" in2="BackgroundImageFix" result="shape"/>
<feColorMatrix in="SourceAlpha" type="matrix" values="0 0 0 0 0 0 0 0 0 0 0 0 0 0 0 0 0 0 127 0" result="hardAlpha"/>
<feOffset dy="4"/>
<feGaussianBlur stdDeviation="2"/>
<feComposite in2="hardAlpha" operator="arithmetic" k2="-1" k3="1"/>
<feColorMatrix type="matrix" values="0 0 0 0 0 0 0 0 0 0 0 0 0 0 0 0 0 0 0.25 0"/>
<feBlend mode="normal" in2="shape" result="effect1_innerShadow_1382_2"/>
</filter>
<linearGradient id="paint0_linear_1382_2" x1="0" y1="21.9234" x2="123" y2="21.9234" gradientUnits="userSpaceOnUse">
<stop stop-color="#4BAF47"/>
<stop offset="1" stop-color="#009C9E"/>
</linearGradient>
</defs>
</svg>
